<svg xmlns="http://www.w3.org/2000/svg" fill="#ffffff" viewBox="0 0 24 24">
  <path d="M12 .5C5.65.5.5 5.65.5 12c0 5.1 3.29 9.42 7.86 10.96.57.1.78-.25.78-.56v-2.02c-3.2.7-3.87-1.54-3.87-1.54-.52-1.32-1.28-1.67-1.28-1.67-1.05-.72.08-.71.08-.71 1.16.08 1.77 1.2 1.77 1.2 1.03 1.76 2.7 1.25 3.36.95.1-.75.4-1.25.72-1.54-2.55-.29-5.23-1.28-5.23-5.68 0-1.25.45-2.27 1.19-3.07-.12-.29-.52-1.45.11-3.02 0 0 .98-.31 3.2 1.18.93-.26 1.93-.39 2.92-.39.99 0 1.99.13 2.92.39 2.22-1.49 3.2-1.18 3.2-1.18.63 1.57.23 2.73.11 3.02.74.8 1.19 1.82 1.19 3.07 0 4.41-2.69 5.38-5.25 5.67.41.35.78 1.04.78 2.1v3.11c0 .31.21.67.79.56A11.51 11.51 0 0023.5 12C23.5 5.65 18.35.5 12 .5z"></path>
</svg>